# xmcd CD database file
#
# Track frame offsets:
#	150
#	29267
#	63583
#	100528
#	119436
#	139296
#	148805
#	162648
#	175983
#	181561
#	195843
#	203192
#	224168
#	245366
#	261880
#	297189
#
# Disc length: 4246 seconds
#
# Revision: 2
# Processed by: cddbd v1.5.2PL0 Copyright (c) Steve Scherf et al.
# Submitted via: CDex 1.70beta2
#
DISCID=f6109410
DTITLE=John Harvey - Schau nicht zurück
DYEAR=2007
DGENRE=Jazz
TTITLE0=Kapitel 01
TTITLE1=Kapitel 02
TTITLE2=Kapitel 03
TTITLE3=Kapitel 04
TTITLE4=Kapitel 05
TTITLE5=Kapitel 06
TTITLE6=Kapitel 07
TTITLE7=Kapitel 08
TTITLE8=Kapitel 09
TTITLE9=Kapitel 10
TTITLE10=Kapitel 11
TTITLE11=Kapitel 12
TTITLE12=Kapitel 13
TTITLE13=Kapitel 14
TTITLE14=Kapitel 15
TTITLE15=Kapitel 16
EXTD=YEAR: 2007
EXTT0=
EXTT1=
EXTT2=
EXTT3=
EXTT4=
EXTT5=
EXTT6=
EXTT7=
EXTT8=
EXTT9=
EXTT10=
EXTT11=
EXTT12=
EXTT13=
EXTT14=
EXTT15=
PLAYORDER=
